<svg width="62" height="62" viewBox="0 0 62 62" fill="none" xmlns="http://www.w3.org/2000/svg">
<g clip-path="url(#clip0_3_1221)">
<g clip-path="url(#clip1_3_1221)">
<path d="M31 61.3999C47.5685 61.3999 61 47.9684 61 31.3999C61 14.8314 47.5685 1.3999 31 1.3999C14.4315 1.3999 1 14.8314 1 31.3999C1 47.9684 14.4315 61.3999 31 61.3999Z" fill="#E7C873"/>
<path fill-rule="evenodd" clip-rule="evenodd" d="M44.4202 20.5212C44.5102 19.9287 44.2577 19.3349 43.769 18.9862C43.2802 18.6387 42.6365 18.5949 42.1052 18.8737C37.854 21.1062 22.9827 28.9137 18.4152 31.3112C17.8515 31.6062 17.519 32.2087 17.5677 32.8424C17.6165 33.4762 18.0365 34.0212 18.639 34.2274C20.4177 34.8362 22.5915 35.5824 26.0002 36.7512L39.7502 23.8999L28.6227 37.6499C32.2577 38.8962 37.9415 40.8449 39.3677 41.3337C39.814 41.4874 40.3065 41.4337 40.7102 41.1899C41.114 40.9449 41.3877 40.5337 41.459 40.0662L44.4202 20.5212Z" fill="#1F4B43"/>
<path fill-rule="evenodd" clip-rule="evenodd" d="M27.04 38.4287V42.5162C27.04 43.1437 27.4088 43.7125 27.98 43.9687C28.5525 44.2262 29.2213 44.1237 29.69 43.7062L33.2375 40.5537L27.04 38.4287Z" fill="#1F4B43"/>
</g>
</g>
<defs>
<clipPath id="clip0_3_1221">
<rect width="61" height="61" fill="white" transform="translate(0.5 0.5)"/>
</clipPath>
<clipPath id="clip1_3_1221">
<rect width="61" height="61" fill="white" transform="translate(0.5 0.5)"/>
</clipPath>
</defs>
</svg>
